<svg width="111" height="110" viewBox="0 0 111 110" fill="none" xmlns="http://www.w3.org/2000/svg">
<path d="M108.5 55C108.5 83.9737 84.7925 107.5 55.5 107.5C26.2075 107.5 2.5 83.9737 2.5 55C2.5 26.0263 26.2075 2.5 55.5 2.5C84.7925 2.5 108.5 26.0263 108.5 55Z" stroke="url(#paint0_linear_58_169)" stroke-width="5"/>
<path d="M36.0488 40.5566C34.9173 40.3031 34.2055 39.1803 34.459 38.0488V38.0488C34.7126 36.9173 35.8354 36.2055 36.9669 36.459L52.8505 40.0178C53.982 40.2713 54.6938 41.3941 54.4402 42.5256V42.5256C54.1867 43.6572 53.0639 44.3689 51.9324 44.1154L36.0488 40.5566Z" fill="#08FE90"/>
<path d="M53.3109 44.3919C52.1786 44.6417 51.0581 43.9262 50.8083 42.7939V42.7939C50.5585 41.6615 51.274 40.5411 52.4063 40.2913L69.6786 36.4809C70.8109 36.2311 71.9314 36.9466 72.1812 38.0789V38.0789C72.431 39.2113 71.7155 40.3317 70.5832 40.5815L53.3109 44.3919Z" fill="#08FE90"/>
<path d="M54.1424 70.15C52.9963 70.4029 51.8622 69.6787 51.6093 68.5326V68.5326C51.3565 67.3865 52.0806 66.2524 53.2268 65.9995L69.5662 62.3949C70.7124 62.1421 71.8465 62.8663 72.0993 64.0124V64.0124C72.3522 65.1585 71.628 66.2926 70.4819 66.5455L54.1424 70.15Z" fill="#08FE90"/>
<path d="M36.1155 66.5265C34.9691 66.2697 34.248 65.1321 34.5049 63.9857V63.9857C34.7617 62.8393 35.8993 62.1182 37.0457 62.3751L53.7809 66.1247C54.9273 66.3815 55.6484 67.5191 55.3916 68.6655V68.6655C55.1347 69.8118 53.9971 70.533 52.8508 70.2761L36.1155 66.5265Z" fill="#08FE90"/>
<path d="M51.2659 43.3952C51.2622 42.2637 52.1765 41.3436 53.3079 41.3399V41.3399C54.4394 41.3363 55.3595 42.2506 55.3632 43.382L55.4402 67.3669C55.4439 68.4984 54.5296 69.4185 53.3981 69.4222V69.4222C52.2667 69.4258 51.3465 68.5115 51.3429 67.3801L51.2659 43.3952Z" fill="#08FE90"/>
<path d="M34.3605 38.7508C34.3567 37.576 35.306 36.6205 36.4808 36.6168V36.6168C37.6556 36.613 38.6111 37.5623 38.6148 38.7371L38.6965 64.152C38.7002 65.3268 37.7509 66.2822 36.5761 66.286V66.286C35.4013 66.2897 34.4459 65.3404 34.4421 64.1656L34.3605 38.7508Z" fill="#08FE90"/>
<path d="M68.1453 38.5331C68.1417 37.3853 69.0692 36.4518 70.217 36.4481V36.4481C71.3649 36.4444 72.2984 37.3719 72.3021 38.5198L72.3852 64.3842C72.3889 65.532 71.4613 66.4655 70.3135 66.4692V66.4692C69.1656 66.4729 68.2321 65.5454 68.2284 64.3975L68.1453 38.5331Z" fill="#08FE90"/>
<defs>
<linearGradient id="paint0_linear_58_169" x1="22" y1="3" x2="83" y2="110" gradientUnits="userSpaceOnUse">
<stop stop-color="#1C8AFF"/>
<stop offset="1" stop-color="#47CAFF" stop-opacity="0.5"/>
</linearGradient>
</defs>
</svg>
