<svg width="111" height="110" viewBox="0 0 111 110" fill="none" xmlns="http://www.w3.org/2000/svg">
<path d="M108.5 55C108.5 83.9737 84.7925 107.5 55.5 107.5C26.2075 107.5 2.5 83.9737 2.5 55C2.5 26.0263 26.2075 2.5 55.5 2.5C84.7925 2.5 108.5 26.0263 108.5 55Z" stroke="url(#paint0_linear_58_178)" stroke-width="5"/>
<path d="M70.0181 51.1261C71.0496 51.0126 71.9877 51.7577 71.9989 52.7954C72.0364 56.2795 71.1148 59.7201 69.3176 62.7332C67.1983 66.2861 63.9773 69.0503 60.1439 70.6058C56.3105 72.1613 52.0741 72.4231 48.0783 71.3515C44.0825 70.2798 40.5456 67.9333 38.005 64.6683C35.4644 61.4034 34.0588 57.3984 34.0018 53.2618C33.9448 49.1252 35.2395 45.083 37.6892 41.7492C40.1389 38.4155 43.6098 35.9724 47.5745 34.7911C50.9368 33.7893 54.4984 33.7413 57.8664 34.6338C58.8696 34.8996 59.3614 35.992 58.9978 36.964V36.964C58.6343 37.936 57.5528 38.417 56.5435 38.1757C53.9489 37.5555 51.2252 37.6247 48.6477 38.3927C45.4671 39.3404 42.6828 41.3003 40.7176 43.9746C38.7525 46.6489 37.7138 49.8916 37.7596 53.21C37.8053 56.5284 38.9329 59.7412 40.971 62.3604C43.0091 64.9796 45.8463 66.862 49.0518 67.7216C52.2572 68.5813 55.6557 68.3713 58.7309 67.1234C61.8061 65.8756 64.39 63.6582 66.0901 60.808C67.4678 58.4981 68.2041 55.875 68.2405 53.2075C68.2546 52.1699 68.9865 51.2397 70.0181 51.1261V51.1261Z" fill="#08FE90"/>
<path d="M45.9525 54.3799C45.1979 53.6373 45.1882 52.4236 45.9308 51.669V51.669C46.6734 50.9144 47.8871 50.9047 48.6417 51.6473L54.2327 57.1495C54.9873 57.8922 54.997 59.1059 54.2544 59.8605V59.8605C53.5118 60.615 52.2981 60.6248 51.5435 59.8821L45.9525 54.3799Z" fill="#08FE90"/>
<path d="M64.7428 42.3031C65.4459 41.5115 66.6575 41.4398 67.4491 42.1429V42.1429C68.2406 42.846 68.3123 44.0577 67.6092 44.8492L54.467 59.6446C53.7639 60.4361 52.5523 60.5078 51.7608 59.8047V59.8047C50.9692 59.1016 50.8975 57.89 51.6006 57.0984L64.7428 42.3031Z" fill="#08FE90"/>
<defs>
<linearGradient id="paint0_linear_58_178" x1="22" y1="3" x2="83" y2="110" gradientUnits="userSpaceOnUse">
<stop stop-color="#1C8AFF"/>
<stop offset="1" stop-color="#47CAFF" stop-opacity="0.5"/>
</linearGradient>
</defs>
</svg>
