<svg width="43" height="42" viewBox="0 0 43 42" fill="none" xmlns="http://www.w3.org/2000/svg">
<rect y="10" width="7.5" height="19.5" rx="1" fill="url(#paint0_linear_31_29)"/>
<circle cx="3.75" cy="3.75" r="3.75" fill="url(#paint1_linear_31_29)"/>
<mask id="path-3-inside-1_31_29" fill="white">
<path d="M10.7334 16.2536C10.7513 14.9635 11.1536 13.7631 11.6739 12.5291C12.1942 11.2951 13.0548 10.0743 13.994 9.09407C15.5585 7.74981 16.9578 6.83682 18.0396 6.56386C18.1135 6.54522 18.1858 6.521 18.2554 6.48984C19.4278 5.96421 20.5915 5.89227 21.8373 5.82708C23.12 5.75996 24.596 6.05181 25.748 6.49759C26.8546 6.92579 28.1765 7.32641 29.0206 8.1437C29.0895 8.21036 29.1644 8.27029 29.2456 8.32115C30.2806 8.96912 31.4226 10.2348 31.8312 11.3523C31.8566 11.4218 31.8869 11.4894 31.924 11.5535C32.5867 12.6961 33.1873 14.2856 33.0666 15.5455L33.027 23.0476L32.9957 28.9704C32.9928 29.5186 32.5491 29.9622 32.0009 29.9651L31.6092 29.9671L29.3072 29.9793L26.6345 29.9934C26.0781 29.9964 25.6263 29.5446 25.6292 28.9882L25.6312 28.6164L25.6433 26.3123L25.4594 17.5581C25.5213 16.9114 25.4329 16.1791 25.2396 15.5869C25.0462 14.9947 25.1337 14.7887 24.7161 14.3459C24.2985 13.9031 23.9147 13.6541 23.3397 13.4316C22.7647 13.2091 22.4385 13.1664 21.7983 13.1999C21.1924 13.2316 20.6219 13.4294 20.0514 13.6914C19.987 13.721 19.9261 13.7583 19.8698 13.8014C19.4384 14.1324 19.399 14.1792 19.0073 14.7642C18.9749 14.8125 18.9385 14.8578 18.9195 14.9128C18.5472 15.9917 18.6393 26.602 18.4882 29.3896C18.4666 29.7893 18.1582 30.0382 17.758 30.0404C17.1467 30.0436 16.6312 30.0463 16.1157 30.049L11.7418 30.0722L11.671 30.0726C11.1146 30.0755 10.6628 29.6237 10.6658 29.0673L10.6762 27.0827L10.6969 23.1656L10.7334 16.2536Z"/>
</mask>
<path d="M10.7334 16.2536C10.7513 14.9635 11.1536 13.7631 11.6739 12.5291C12.1942 11.2951 13.0548 10.0743 13.994 9.09407C15.5585 7.74981 16.9578 6.83682 18.0396 6.56386C18.1135 6.54522 18.1858 6.521 18.2554 6.48984C19.4278 5.96421 20.5915 5.89227 21.8373 5.82708C23.12 5.75996 24.596 6.05181 25.748 6.49759C26.8546 6.92579 28.1765 7.32641 29.0206 8.1437C29.0895 8.21036 29.1644 8.27029 29.2456 8.32115C30.2806 8.96912 31.4226 10.2348 31.8312 11.3523C31.8566 11.4218 31.8869 11.4894 31.924 11.5535C32.5867 12.6961 33.1873 14.2856 33.0666 15.5455L33.027 23.0476L32.9957 28.9704C32.9928 29.5186 32.5491 29.9622 32.0009 29.9651L31.6092 29.9671L29.3072 29.9793L26.6345 29.9934C26.0781 29.9964 25.6263 29.5446 25.6292 28.9882L25.6312 28.6164L25.6433 26.3123L25.4594 17.5581C25.5213 16.9114 25.4329 16.1791 25.2396 15.5869C25.0462 14.9947 25.1337 14.7887 24.7161 14.3459C24.2985 13.9031 23.9147 13.6541 23.3397 13.4316C22.7647 13.2091 22.4385 13.1664 21.7983 13.1999C21.1924 13.2316 20.6219 13.4294 20.0514 13.6914C19.987 13.721 19.9261 13.7583 19.8698 13.8014C19.4384 14.1324 19.399 14.1792 19.0073 14.7642C18.9749 14.8125 18.9385 14.8578 18.9195 14.9128C18.5472 15.9917 18.6393 26.602 18.4882 29.3896C18.4666 29.7893 18.1582 30.0382 17.758 30.0404C17.1467 30.0436 16.6312 30.0463 16.1157 30.049L11.7418 30.0722L11.671 30.0726C11.1146 30.0755 10.6628 29.6237 10.6658 29.0673L10.6762 27.0827L10.6969 23.1656L10.7334 16.2536Z" fill="#D9D9D9"/>
<path d="M10.7334 16.2536L-4.26513 16.0458L-4.26602 16.11L-4.26636 16.1743L10.7334 16.2536ZM13.994 9.09407L4.21829 -2.28286L3.6669 -1.80907L3.16392 -1.28419L13.994 9.09407ZM33.0666 15.5455L18.135 14.115L18.0704 14.7891L18.0668 15.4663L33.0666 15.5455ZM25.4594 17.5581L10.5277 16.1276L10.4443 16.9985L10.4627 17.8732L25.4594 17.5581ZM21.7983 13.1999L22.5822 28.1794L21.7983 13.1999ZM16.1157 30.049L16.0364 15.0492L16.0362 15.0492L16.1157 30.049ZM11.7418 30.0722L11.8198 45.072L11.8214 45.072L11.7418 30.0722ZM10.6969 23.1656L-4.30287 23.0864L-4.30287 23.0864L10.6969 23.1656ZM10.6762 27.0827L-4.32355 27.0036L-4.32355 27.0036L10.6762 27.0827ZM29.3072 29.9793L29.3865 44.9791L29.3865 44.9791L29.3072 29.9793ZM33.027 23.0476L48.0268 23.1269L48.0268 23.1268L33.027 23.0476ZM31.6092 29.9671L31.5309 14.9673L31.5299 14.9673L31.6092 29.9671ZM25.6433 26.3123L40.6431 26.3916L40.6442 26.1944L40.64 25.9972L25.6433 26.3123ZM25.6312 28.6164L40.631 28.6956L40.631 28.6956L25.6312 28.6164ZM32.9957 28.9704L47.9955 29.0497L32.9957 28.9704ZM11.671 30.0726L11.593 15.0728L11.671 30.0726ZM10.6658 29.0673L25.6656 29.1465L10.6658 29.0673ZM18.4882 29.3896L33.4663 30.2012L18.4882 29.3896ZM17.758 30.0404L17.6786 15.0406L17.758 30.0404ZM19.0073 14.7642L6.54324 6.4187L19.0073 14.7642ZM18.9195 14.9128L4.73993 10.0201L18.9195 14.9128ZM18.0396 6.56386L21.7093 21.1081L18.0396 6.56386ZM18.2554 6.48984L24.3918 20.1772L18.2554 6.48984ZM20.0514 13.6914L13.7909 0.0603875L20.0514 13.6914ZM19.8698 13.8014L10.74 1.89989L19.8698 13.8014ZM31.8312 11.3523L45.9189 6.2011L31.8312 11.3523ZM31.924 11.5535L18.9483 19.0789L31.924 11.5535ZM26.6345 29.9934L26.7137 44.9932L26.6345 29.9934ZM25.6292 28.9882L40.629 29.0674L25.6292 28.9882ZM29.0206 8.1437L39.4545 -2.63288L29.0206 8.1437ZM29.2456 8.32115L37.2054 -4.39267L29.2456 8.32115ZM25.732 16.4613C25.7199 17.3311 25.578 17.9822 25.487 18.3162C25.4074 18.6081 25.3577 18.6838 25.4957 18.3565L-2.14786 6.70172C-2.87324 8.4222 -4.20623 11.7938 -4.26513 16.0458L25.732 16.4613ZM25.4957 18.3565C25.3065 18.8052 25.1364 19.0697 25.0625 19.1778C24.9824 19.2951 24.909 19.3839 24.8242 19.4723L3.16392 -1.28419C1.22041 0.743941 -0.782669 3.46368 -2.14786 6.70172L25.4957 18.3565ZM23.7698 20.471C24.1876 20.112 24.3315 20.0313 24.2149 20.105C24.1455 20.1489 23.9243 20.2851 23.5636 20.455C23.2165 20.6185 22.5846 20.8872 21.7093 21.1081L14.37 -7.98035C9.64395 -6.78792 5.97517 -3.79248 4.21829 -2.28286L23.7698 20.471ZM24.3918 20.1772C23.4762 20.5877 22.707 20.7483 22.3137 20.8092C22.1381 20.8364 22.0499 20.8415 22.109 20.8368C22.1849 20.8307 22.306 20.8231 22.6212 20.8066L21.0534 -9.15242C20.0261 -9.09866 16.1802 -9.01831 12.1189 -7.19754L24.3918 20.1772ZM22.6212 20.8066C21.8975 20.8445 21.4193 20.7747 21.2036 20.7362C20.9704 20.6945 20.6951 20.6262 20.3348 20.4868L31.1612 -7.4916C28.4009 -8.55969 24.8068 -9.34884 21.0534 -9.15242L22.6212 20.8066ZM20.3348 20.4868C20.5663 20.5764 20.7821 20.657 20.9354 20.7141C21.1143 20.7807 21.2037 20.8138 21.3083 20.8533C21.507 20.9283 21.4866 20.9246 21.3789 20.8767C21.2676 20.8271 20.9293 20.672 20.475 20.3938C20.0175 20.1136 19.3323 19.6421 18.5868 18.9203L39.4545 -2.63288C37.202 -4.8137 34.8311 -5.97279 33.5865 -6.52723C32.9046 -6.83102 32.2934 -7.06621 31.9066 -7.21228C31.3242 -7.43221 31.4078 -7.39616 31.1612 -7.4916L20.3348 20.4868ZM21.2858 21.035C20.3393 20.4424 19.7801 19.879 19.4427 19.4901C19.2387 19.2549 18.9876 18.9349 18.7201 18.5116C18.4656 18.1088 18.0847 17.4368 17.7434 16.5034L45.9189 6.2011C44.1332 1.31736 40.4355 -2.37037 37.2054 -4.39267L21.2858 21.035ZM18.9483 19.0789C18.7949 18.8144 18.6275 18.4777 18.4712 17.9773C18.387 17.7077 18.2699 17.2745 18.1862 16.695C18.1047 16.1307 18.0273 15.2391 18.135 14.115L47.9983 16.976C48.569 11.0188 46.0838 6.06968 44.8997 4.02811L18.9483 19.0789ZM40.391 18.9886C40.6564 16.2184 40.3101 13.4164 39.499 10.9318L10.9802 20.242C10.7344 19.4891 10.6068 18.8215 10.5417 18.251C10.4768 17.6811 10.4471 16.9694 10.5277 16.1276L40.391 18.9886ZM39.499 10.9318C39.6421 11.3704 39.724 11.7173 39.7438 11.8021C39.8135 12.1015 39.6325 11.2743 39.4241 10.5827C39.1254 9.59125 38.6518 8.35413 37.8687 7.02573C37.1222 5.75943 36.3108 4.77765 35.6288 4.05445L13.8034 24.6373C13.3302 24.1356 12.6645 23.3456 12.0251 22.2609C11.3491 21.1142 10.944 20.0486 10.6998 19.238C10.5945 18.8885 10.5298 18.6206 10.51 18.5374C10.4995 18.4938 10.4929 18.4647 10.4975 18.4844C10.498 18.487 10.5129 18.5517 10.5261 18.6087C10.5969 18.9125 10.7403 19.5073 10.9802 20.242L39.499 10.9318ZM35.6288 4.05445C33.5668 1.86797 31.2592 0.412218 28.7529 -0.557599L17.9265 27.4208C17.4872 27.2508 16.7102 26.9107 15.8164 26.3201C14.9052 25.7178 14.2357 25.0957 13.8034 24.6373L35.6288 4.05445ZM28.7529 -0.557599C27.8602 -0.903041 26.4966 -1.36786 24.7735 -1.62098C23.118 -1.86417 21.7487 -1.818 21.0144 -1.77958L22.5822 28.1794C22.4882 28.1843 21.6021 28.2351 20.4134 28.0605C19.1572 27.876 18.2443 27.5437 17.9265 27.4208L28.7529 -0.557599ZM21.0144 -1.77958C17.6653 -1.60431 15.0929 -0.537608 13.7909 0.0603875L26.312 27.3225C26.1509 27.3965 24.7195 28.0676 22.5822 28.1794L21.0144 -1.77958ZM10.74 1.89989C10.6048 2.00364 9.41258 2.87878 8.23764 4.1939C7.28119 5.26448 6.55489 6.4013 6.54324 6.4187L31.4714 23.1097C31.5892 22.9337 31.5425 23.0062 31.4572 23.1258C31.3455 23.2822 31.0499 23.6885 30.6097 24.1812C29.6602 25.2439 28.7034 25.9302 28.9996 25.703L10.74 1.89989ZM4.73993 10.0201C4.229 11.5008 4.05188 12.7808 4.00801 13.0856C3.92992 13.6281 3.88259 14.1209 3.85267 14.4781C3.79182 15.2046 3.75399 15.975 3.72756 16.6575C3.67361 18.0506 3.64366 19.7273 3.62229 21.3076C3.57418 24.8654 3.56376 27.5897 3.51021 28.578L33.4663 30.2012C33.5238 29.139 33.5482 27.6305 33.5657 26.3003C33.5884 24.5708 33.5952 23.5131 33.6195 21.7133C33.6406 20.1577 33.6669 18.8053 33.7051 17.8184C33.7247 17.3109 33.742 17.0536 33.748 16.9824C33.7514 16.9408 33.7405 17.0923 33.702 17.3595C33.6978 17.3889 33.5635 18.4596 33.0992 19.8055L4.73993 10.0201ZM17.6786 15.0406C17.0725 15.0438 16.5472 15.0465 16.0364 15.0492L16.1951 45.0488C16.7153 45.0461 17.221 45.0434 17.8373 45.0401L17.6786 15.0406ZM16.0362 15.0492L11.6622 15.0725L11.8214 45.072L16.1953 45.0488L16.0362 15.0492ZM25.6967 23.2448L25.7332 16.3328L-4.26636 16.1743L-4.30287 23.0864L25.6967 23.2448ZM25.676 27.1619L25.6967 23.2448L-4.30287 23.0864L-4.32355 27.0036L25.676 27.1619ZM11.6638 15.0724L11.593 15.0728L11.749 45.0724L11.8198 45.072L11.6638 15.0724ZM25.6656 29.1465L25.676 27.1619L-4.32355 27.0036L-4.33402 28.9882L25.6656 29.1465ZM18.0668 15.4663L18.0272 22.9683L48.0268 23.1268L48.0664 15.6247L18.0668 15.4663ZM18.0272 22.9682L17.9959 28.891L47.9955 29.0497L48.0268 23.1269L18.0272 22.9682ZM31.9225 14.9653L31.5309 14.9673L31.6876 44.9669L32.0793 44.9649L31.9225 14.9653ZM31.5299 14.9673L29.2279 14.9795L29.3865 44.9791L31.6886 44.9669L31.5299 14.9673ZM40.64 25.9972L40.4561 17.2429L10.4627 17.8732L10.6466 26.6275L40.64 25.9972ZM40.631 28.6956L40.6431 26.3916L10.6435 26.2331L10.6314 28.5371L40.631 28.6956ZM29.2279 14.9795L26.5552 14.9936L26.7137 44.9932L29.3865 44.9791L29.2279 14.9795ZM40.629 29.0674L40.631 28.6956L10.6314 28.5371L10.6294 28.9089L40.629 29.0674ZM17.9959 28.891C18.0365 21.2166 24.2481 15.0054 31.9225 14.9653L32.0793 44.9649C40.8501 44.9191 47.9491 37.8206 47.9955 29.0497L17.9959 28.891ZM11.593 15.0728C19.3822 15.0323 25.7067 21.3573 25.6656 29.1465L-4.33402 28.9882C-4.38098 37.8902 2.84699 45.1187 11.749 45.0724L11.593 15.0728ZM3.51021 28.578C3.71019 24.8874 5.37014 21.1887 8.44432 18.526C11.3866 15.9774 14.8146 15.0557 17.6786 15.0406L17.8373 45.0401C21.1016 45.0229 24.8839 43.9756 28.0858 41.2022C31.4197 38.3145 33.2446 34.2915 33.4663 30.2012L3.51021 28.578ZM6.54324 6.4187C6.62754 6.2928 6.72867 6.1482 6.66203 6.24417C6.64016 6.27566 6.49673 6.4811 6.32857 6.74356C5.9917 7.26931 5.29224 8.4194 4.73993 10.0201L33.0992 19.8055C32.5658 21.3511 31.8941 22.4511 31.5882 22.9284C31.4356 23.1666 31.3085 23.3483 31.3032 23.356C31.2531 23.4281 31.3709 23.2597 31.4714 23.1097L6.54324 6.4187ZM21.7093 21.1081C22.5147 20.9048 23.4259 20.6102 24.3918 20.1772L12.1189 -7.19754C12.9458 -7.56823 13.7123 -7.81439 14.37 -7.98035L21.7093 21.1081ZM13.7909 0.0603875C12.6497 0.584504 11.6323 1.21541 10.74 1.89989L28.9996 25.703C28.2198 26.3012 27.3243 26.8575 26.312 27.3225L13.7909 0.0603875ZM17.7434 16.5034C18.0082 17.2278 18.3906 18.1172 18.9483 19.0789L44.8997 4.02811C45.3831 4.86158 45.705 5.6159 45.9189 6.2011L17.7434 16.5034ZM26.5552 14.9936C34.3449 14.9525 40.6701 21.2777 40.629 29.0674L10.6294 28.9089C10.5824 37.8115 17.8112 45.0403 26.7137 44.9932L26.5552 14.9936ZM18.5868 18.9203C19.3317 19.6415 20.2263 20.3716 21.2858 21.035L37.2054 -4.39267C38.1025 -3.83106 38.8472 -3.22082 39.4545 -2.63288L18.5868 18.9203Z" fill="url(#paint2_linear_31_29)" mask="url(#path-3-inside-1_31_29)"/>
<defs>
<linearGradient id="paint0_linear_31_29" x1="3.75" y1="10" x2="3.75" y2="29.5" gradientUnits="userSpaceOnUse">
<stop stop-color="#2F80ED"/>
<stop offset="1" stop-color="#56CCF2"/>
</linearGradient>
<linearGradient id="paint1_linear_31_29" x1="3.75" y1="0" x2="3.75" y2="7.5" gradientUnits="userSpaceOnUse">
<stop stop-color="#2F80ED"/>
<stop offset="1" stop-color="#56CCF2"/>
</linearGradient>
<linearGradient id="paint2_linear_31_29" x1="13.5" y1="9" x2="25.5" y2="30" gradientUnits="userSpaceOnUse">
<stop stop-color="#2F80ED"/>
<stop offset="1" stop-color="#56CCF2"/>
</linearGradient>
</defs>
</svg>
